<svg xmlns="http://www.w3.org/2000/svg" viewBox="0 0 24 24" fill="none">
  <path d="M5.2 4.8h13.6a3.2 3.2 0 0 1 3.2 3.2v7a3.2 3.2 0 0 1-3.2 3.2h-6.3l-4.6 3.7c-.6.5-1.5.1-1.5-.7v-3H5.2A3.2 3.2 0 0 1 2 15V8a3.2 3.2 0 0 1 3.2-3.2Z" stroke="currentColor" stroke-width="1.9" stroke-linejoin="round"/>
  <path d="M7.7 12c.7 0 1.1-1.8 1.8-1.8s1.1 3.5 1.8 3.5 1.1-5.1 1.8-5.1 1.1 6.9 1.8 6.9 1.1-3.5 1.8-3.5" stroke="currentColor" stroke-width="1.7" stroke-linecap="round" stroke-linejoin="round" opacity=".94"/>
</svg>
