<svg xmlns="http://www.w3.org/2000/svg" viewBox="0 0 24 24" fill="none">
  <circle cx="10.5" cy="4.5" r="0.85" fill="currentColor" opacity=".78"/>
  <circle cx="13.5" cy="4.5" r="0.85" fill="currentColor" opacity=".78"/>
  <circle cx="7.5" cy="7.5" r="1.15" fill="currentColor" opacity=".84"/>
  <circle cx="10.5" cy="7.5" r="1.15" fill="currentColor" opacity=".9"/>
  <circle cx="13.5" cy="7.5" r="1.15" fill="currentColor" opacity=".9"/>
  <circle cx="16.5" cy="7.5" r="1.15" fill="currentColor" opacity=".84"/>
  <circle cx="4.5" cy="10.5" r="0.85" fill="currentColor" opacity=".78"/>
  <circle cx="7.5" cy="10.5" r="1.15" fill="currentColor" opacity=".9"/>
  <circle cx="10.5" cy="10.5" r="1.45" fill="currentColor"/>
  <circle cx="13.5" cy="10.5" r="1.45" fill="currentColor"/>
  <circle cx="16.5" cy="10.5" r="1.15" fill="currentColor" opacity=".9"/>
  <circle cx="19.5" cy="10.5" r="0.85" fill="currentColor" opacity=".78"/>
  <circle cx="4.5" cy="13.5" r="0.85" fill="currentColor" opacity=".78"/>
  <circle cx="7.5" cy="13.5" r="1.15" fill="currentColor" opacity=".9"/>
  <circle cx="10.5" cy="13.5" r="1.45" fill="currentColor"/>
  <circle cx="13.5" cy="13.5" r="1.45" fill="currentColor"/>
  <circle cx="16.5" cy="13.5" r="1.15" fill="currentColor" opacity=".9"/>
  <circle cx="19.5" cy="13.5" r="0.85" fill="currentColor" opacity=".78"/>
  <circle cx="7.5" cy="16.5" r="1.15" fill="currentColor" opacity=".84"/>
  <circle cx="10.5" cy="16.5" r="1.15" fill="currentColor" opacity=".9"/>
  <circle cx="13.5" cy="16.5" r="1.15" fill="currentColor" opacity=".9"/>
  <circle cx="16.5" cy="16.5" r="1.15" fill="currentColor" opacity=".84"/>
  <circle cx="10.5" cy="19.5" r="0.85" fill="currentColor" opacity=".78"/>
  <circle cx="13.5" cy="19.5" r="0.85" fill="currentColor" opacity=".78"/>
</svg>