<svg xmlns="http://www.w3.org/2000/svg" viewBox="0 0 24 24" fill="none">
  <circle cx="10.5" cy="2.8" r="0.85" fill="currentColor" opacity=".78"/>
  <circle cx="13.5" cy="2.8" r="0.85" fill="currentColor" opacity=".78"/>
  <circle cx="6.8" cy="6.8" r="1.15" fill="currentColor" opacity=".84"/>
  <circle cx="10.5" cy="6.8" r="1.15" fill="currentColor" opacity=".9"/>
  <circle cx="13.5" cy="6.8" r="1.15" fill="currentColor" opacity=".9"/>
  <circle cx="17.2" cy="6.8" r="1.15" fill="currentColor" opacity=".84"/>
  <circle cx="2.8" cy="10.5" r="0.85" fill="currentColor" opacity=".78"/>
  <circle cx="6.8" cy="10.5" r="1.15" fill="currentColor" opacity=".9"/>
  <circle cx="10.5" cy="10.5" r="1.45" fill="currentColor"/>
  <circle cx="13.5" cy="10.5" r="1.45" fill="currentColor"/>
  <circle cx="17.2" cy="10.5" r="1.15" fill="currentColor" opacity=".9"/>
  <circle cx="21.2" cy="10.5" r="0.85" fill="currentColor" opacity=".78"/>
  <circle cx="2.8" cy="13.5" r="0.85" fill="currentColor" opacity=".78"/>
  <circle cx="6.8" cy="13.5" r="1.15" fill="currentColor" opacity=".9"/>
  <circle cx="10.5" cy="13.5" r="1.45" fill="currentColor"/>
  <circle cx="13.5" cy="13.5" r="1.45" fill="currentColor"/>
  <circle cx="17.2" cy="13.5" r="1.15" fill="currentColor" opacity=".9"/>
  <circle cx="21.2" cy="13.5" r="0.85" fill="currentColor" opacity=".78"/>
  <circle cx="6.8" cy="17.2" r="1.15" fill="currentColor" opacity=".84"/>
  <circle cx="10.5" cy="17.2" r="1.15" fill="currentColor" opacity=".9"/>
  <circle cx="13.5" cy="17.2" r="1.15" fill="currentColor" opacity=".9"/>
  <circle cx="17.2" cy="17.2" r="1.15" fill="currentColor" opacity=".84"/>
  <circle cx="10.5" cy="21.2" r="0.85" fill="currentColor" opacity=".78"/>
  <circle cx="13.5" cy="21.2" r="0.85" fill="currentColor" opacity=".78"/>
</svg>