<svg xmlns="http://www.w3.org/2000/svg">
  <symbol id="hdw-icon-audio-compressor" viewBox="0 0 24 24" fill="none">
    <g fill="currentColor" opacity=".94">
    <rect x="2.6" y="8" width="2" height="8" rx=".25" opacity=".82"/>
    <rect x="6.8" y="5.5" width="2" height="13" rx=".25" opacity=".9"/>
    <rect x="11" y="3" width="2" height="18" rx=".25"/>
    <rect x="15.2" y="5.5" width="2" height="13" rx=".25" opacity=".9"/>
    <rect x="19.4" y="8" width="2" height="8" rx=".25" opacity=".82"/>
  </g>
  </symbol>
  <symbol id="hdw-icon-playback-overlay" viewBox="0 0 24 24" fill="none">
    <rect x="2.5" y="4" width="19" height="16" rx="2.2" stroke="currentColor" stroke-width="1.9"/>
  <path d="M6.6 8h8.2M6.6 11h5.9M6.6 14h3.8" stroke="currentColor" stroke-width="1.7" stroke-linecap="round" opacity=".95"/>
  </symbol>
  <symbol id="hdw-icon-theater-mode" viewBox="0 0 24 24" fill="none">
    <path d="M6.5 3H2v4.5M17.5 3H22v4.5M6.5 21H2v-4.5M17.5 21H22v-4.5" stroke="currentColor" stroke-width="1.9" stroke-linecap="round" stroke-linejoin="round"/>
  <path d="M7.5 7.5h9v9h-9z" stroke="currentColor" stroke-width="1.7" opacity=".85"/>
  </symbol>
  <symbol id="hdw-icon-video-blur" viewBox="0 0 24 24" fill="none">
    <circle cx="10.5" cy="2.8" r="0.85" fill="currentColor" opacity=".78"/>
  <circle cx="13.5" cy="2.8" r="0.85" fill="currentColor" opacity=".78"/>
  <circle cx="6.8" cy="6.8" r="1.15" fill="currentColor" opacity=".84"/>
  <circle cx="10.5" cy="6.8" r="1.15" fill="currentColor" opacity=".9"/>
  <circle cx="13.5" cy="6.8" r="1.15" fill="currentColor" opacity=".9"/>
  <circle cx="17.2" cy="6.8" r="1.15" fill="currentColor" opacity=".84"/>
  <circle cx="2.8" cy="10.5" r="0.85" fill="currentColor" opacity=".78"/>
  <circle cx="6.8" cy="10.5" r="1.15" fill="currentColor" opacity=".9"/>
  <circle cx="10.5" cy="10.5" r="1.45" fill="currentColor"/>
  <circle cx="13.5" cy="10.5" r="1.45" fill="currentColor"/>
  <circle cx="17.2" cy="10.5" r="1.15" fill="currentColor" opacity=".9"/>
  <circle cx="21.2" cy="10.5" r="0.85" fill="currentColor" opacity=".78"/>
  <circle cx="2.8" cy="13.5" r="0.85" fill="currentColor" opacity=".78"/>
  <circle cx="6.8" cy="13.5" r="1.15" fill="currentColor" opacity=".9"/>
  <circle cx="10.5" cy="13.5" r="1.45" fill="currentColor"/>
  <circle cx="13.5" cy="13.5" r="1.45" fill="currentColor"/>
  <circle cx="17.2" cy="13.5" r="1.15" fill="currentColor" opacity=".9"/>
  <circle cx="21.2" cy="13.5" r="0.85" fill="currentColor" opacity=".78"/>
  <circle cx="6.8" cy="17.2" r="1.15" fill="currentColor" opacity=".84"/>
  <circle cx="10.5" cy="17.2" r="1.15" fill="currentColor" opacity=".9"/>
  <circle cx="13.5" cy="17.2" r="1.15" fill="currentColor" opacity=".9"/>
  <circle cx="17.2" cy="17.2" r="1.15" fill="currentColor" opacity=".84"/>
  <circle cx="10.5" cy="21.2" r="0.85" fill="currentColor" opacity=".78"/>
  <circle cx="13.5" cy="21.2" r="0.85" fill="currentColor" opacity=".78"/>
  </symbol>
  <symbol id="hdw-icon-video-mirror" viewBox="0 0 24 24" fill="none">
    <path d="M12 3v18" stroke="currentColor" stroke-width="1.9" stroke-linecap="round" opacity=".9"/>
  <path d="M9 5.2H4a1 1 0 0 0-1 1v11.6a1 1 0 0 0 1 1h5" stroke="currentColor" stroke-width="1.9" stroke-linecap="round" stroke-linejoin="round"/>
  <path d="M15 5.2h5a1 1 0 0 1 1 1v11.6a1 1 0 0 1-1 1h-5" stroke="currentColor" stroke-width="1.9" stroke-linecap="round" stroke-linejoin="round"/>
  <path d="M5.2 9.1 7 10.9M5.2 13.1 7 14.9" stroke="currentColor" stroke-width="1.35" stroke-linecap="round" opacity=".72"/>
  <path d="M18.8 9.1 17 10.9M18.8 13.1 17 14.9" stroke="currentColor" stroke-width="1.35" stroke-linecap="round" opacity=".72"/>
  </symbol>
  <symbol id="hdw-icon-watchlist" viewBox="0 0 24 24" fill="none">
    <path d="M12 21.35 10.55 20.03C5.4 15.36 2 12.28 2 8.5 2 5.42 4.42 3 7.5 3c1.74 0 3.41.81 4.5 2.09C13.09 3.81 14.76 3 16.5 3 19.58 3 22 5.42 22 8.5c0 3.78-3.4 6.86-8.55 11.54L12 21.35Z" stroke="currentColor" stroke-width="1.9" stroke-linecap="round" stroke-linejoin="round"/>
  </symbol>
</svg>