<svg xmlns="http://www.w3.org/2000/svg">
  <symbol id="hdw-icon-audio-compressor" viewBox="0 0 24 24" fill="none">
    <g fill="currentColor" opacity=".94">
    <rect x="2.6" y="8" width="2" height="8" rx=".25" opacity=".82"/>
    <rect x="6.8" y="5.5" width="2" height="13" rx=".25" opacity=".9"/>
    <rect x="11" y="3" width="2" height="18" rx=".25"/>
    <rect x="15.2" y="5.5" width="2" height="13" rx=".25" opacity=".9"/>
    <rect x="19.4" y="8" width="2" height="8" rx=".25" opacity=".82"/>
  </g>
  </symbol>
  <symbol id="hdw-icon-playback-overlay" viewBox="0 0 24 24" fill="none">
    <rect x="2.5" y="4" width="19" height="16" rx="2.2" stroke="currentColor" stroke-width="1.9"/>
  <path d="M6.6 8h8.2M6.6 11h5.9M6.6 14h3.8" stroke="currentColor" stroke-width="1.7" stroke-linecap="round" opacity=".95"/>
  </symbol>
  <symbol id="hdw-icon-theater-mode" viewBox="0 0 24 24" fill="none">
    <path d="M6.5 3H2v4.5M17.5 3H22v4.5M6.5 21H2v-4.5M17.5 21H22v-4.5" stroke="currentColor" stroke-width="1.9" stroke-linecap="round" stroke-linejoin="round"/>
  <path d="M7.5 7.5h9v9h-9z" stroke="currentColor" stroke-width="1.7" opacity=".85"/>
  </symbol>
  <symbol id="hdw-icon-video-blur" viewBox="0 0 24 24" fill="none">
    <circle cx="10.5" cy="2.8" r="0.85" fill="currentColor" opacity=".78"/>
  <circle cx="13.5" cy="2.8" r="0.85" fill="currentColor" opacity=".78"/>
  <circle cx="6.8" cy="6.8" r="1.15" fill="currentColor" opacity=".84"/>
  <circle cx="10.5" cy="6.8" r="1.15" fill="currentColor" opacity=".9"/>
  <circle cx="13.5" cy="6.8" r="1.15" fill="currentColor" opacity=".9"/>
  <circle cx="17.2" cy="6.8" r="1.15" fill="currentColor" opacity=".84"/>
  <circle cx="2.8" cy="10.5" r="0.85" fill="currentColor" opacity=".78"/>
  <circle cx="6.8" cy="10.5" r="1.15" fill="currentColor" opacity=".9"/>
  <circle cx="10.5" cy="10.5" r="1.45" fill="currentColor"/>
  <circle cx="13.5" cy="10.5" r="1.45" fill="currentColor"/>
  <circle cx="17.2" cy="10.5" r="1.15" fill="currentColor" opacity=".9"/>
  <circle cx="21.2" cy="10.5" r="0.85" fill="currentColor" opacity=".78"/>
  <circle cx="2.8" cy="13.5" r="0.85" fill="currentColor" opacity=".78"/>
  <circle cx="6.8" cy="13.5" r="1.15" fill="currentColor" opacity=".9"/>
  <circle cx="10.5" cy="13.5" r="1.45" fill="currentColor"/>
  <circle cx="13.5" cy="13.5" r="1.45" fill="currentColor"/>
  <circle cx="17.2" cy="13.5" r="1.15" fill="currentColor" opacity=".9"/>
  <circle cx="21.2" cy="13.5" r="0.85" fill="currentColor" opacity=".78"/>
  <circle cx="6.8" cy="17.2" r="1.15" fill="currentColor" opacity=".84"/>
  <circle cx="10.5" cy="17.2" r="1.15" fill="currentColor" opacity=".9"/>
  <circle cx="13.5" cy="17.2" r="1.15" fill="currentColor" opacity=".9"/>
  <circle cx="17.2" cy="17.2" r="1.15" fill="currentColor" opacity=".84"/>
  <circle cx="10.5" cy="21.2" r="0.85" fill="currentColor" opacity=".78"/>
  <circle cx="13.5" cy="21.2" r="0.85" fill="currentColor" opacity=".78"/>
  </symbol>
  <symbol id="hdw-icon-video-mirror" viewBox="0 0 24 24" fill="none">
    <path d="M12 3v18" stroke="currentColor" stroke-width="1.9" stroke-linecap="round" opacity=".9"/>
  <path d="M9 5.2H4a1 1 0 0 0-1 1v11.6a1 1 0 0 0 1 1h5" stroke="currentColor" stroke-width="1.9" stroke-linecap="round" stroke-linejoin="round"/>
  <path d="M15 5.2h5a1 1 0 0 1 1 1v11.6a1 1 0 0 1-1 1h-5" stroke="currentColor" stroke-width="1.9" stroke-linecap="round" stroke-linejoin="round"/>
  <path d="M5.2 9.1 7 10.9M5.2 13.1 7 14.9" stroke="currentColor" stroke-width="1.35" stroke-linecap="round" opacity=".72"/>
  <path d="M18.8 9.1 17 10.9M18.8 13.1 17 14.9" stroke="currentColor" stroke-width="1.35" stroke-linecap="round" opacity=".72"/>
  </symbol>
  <symbol id="hdw-icon-watchlist" viewBox="0 0 24 24" fill="none">
    <path d="M12 3.6 14.67 8.95 20.58 9.81 16.29 13.98 17.3 19.86 12 17.09 6.7 19.86 7.71 13.98 3.42 9.81 9.33 8.95 12 3.6Z" stroke="currentColor" stroke-width="1.9" stroke-linecap="round" stroke-linejoin="round"/>
  </symbol>
  <symbol id="hdw-icon-watchlist_abandoned" viewBox="0 0 24 24" fill="none">
    <path d="M7.5 7.5 16.5 16.5" stroke="currentColor" stroke-width="1.9" stroke-linecap="round"/>
  <path d="M16.5 7.5 7.5 16.5" stroke="currentColor" stroke-width="1.9" stroke-linecap="round"/>
  </symbol>
  <symbol id="hdw-icon-watchlist_completed" viewBox="0 0 24 24" fill="none">
    <path d="M7 12.4 10.2 15.6 17.3 8.5" stroke="currentColor" stroke-width="2.1" stroke-linecap="round" stroke-linejoin="round"/>
  </symbol>
  <symbol id="hdw-icon-watchlist_favorite" viewBox="0 0 24 24" fill="none">
    <path d="M12 3.6 14.67 8.95 20.58 9.81 16.29 13.98 17.3 19.86 12 17.09 6.7 19.86 7.71 13.98 3.42 9.81 9.33 8.95 12 3.6Z" stroke="currentColor" stroke-width="1.9" stroke-linecap="round" stroke-linejoin="round"/>
  </symbol>
  <symbol id="hdw-icon-watchlist_later" viewBox="0 0 24 24" fill="none">
    <path d="M8 3.5H16" stroke="currentColor" stroke-width="1.9" stroke-linecap="round"/>
  <path d="M8 20.5H16" stroke="currentColor" stroke-width="1.9" stroke-linecap="round"/>
  <path d="M9 3.5V6.4C9 7.25 9.34 8.07 9.94 8.66L11.33 10.05C11.7 10.42 11.7 11.03 11.33 11.4L9.94 12.79C9.34 13.38 9 14.2 9 15.05V20.5" stroke="currentColor" stroke-width="1.9" stroke-linecap="round" stroke-linejoin="round"/>
  <path d="M15 3.5V6.4C15 7.25 14.66 8.07 14.06 8.66L12.67 10.05C12.3 10.42 12.3 11.03 12.67 11.4L14.06 12.79C14.66 13.38 15 14.2 15 15.05V20.5" stroke="currentColor" stroke-width="1.9" stroke-linecap="round" stroke-linejoin="round"/>
  <path d="M10.2 5.3H13.8L12 7.25L10.2 5.3Z" fill="currentColor" opacity=".38"/>
  <path d="M10.1 18.7H13.9L12 16.75L10.1 18.7Z" fill="currentColor" opacity=".72"/>
  <path d="M11.55 10.72H12.45V13.28H11.55Z" fill="currentColor"/>
  </symbol>
  <symbol id="hdw-icon-watchlist_watching" viewBox="0 0 24 24" fill="none">
    <path d="M8.5 6.5V17.5L17.5 12L8.5 6.5Z" stroke="currentColor" stroke-width="1.9" stroke-linecap="round" stroke-linejoin="round"/>
  </symbol>
</svg>